# Blender 3.5.0
# www.blender.org
mtllib sekil.mtl
o Plane
v -0.757019 0.000108 1.077911
v 0.771410 0.018511 1.025588
v -0.780996 -0.004666 -1.251212
v 0.755376 0.001619 -1.179393
v -0.728245 0.124891 1.044544
v 0.738500 0.180187 0.989450
v -0.735505 0.139065 -1.214667
v 0.725954 0.178717 -1.097897
v -0.785088 0.164422 -0.864388
v -0.789179 0.164422 -0.477564
v -0.750032 0.150288 -0.101549
v -0.797363 0.164422 0.296083
v -0.801455 0.164422 0.682907
v -0.543144 0.164422 1.069731
v -0.278086 0.167433 1.068505
v -0.016983 0.164440 1.021464
v 0.244962 0.161636 1.044267
v 0.506472 0.164406 1.069310
v 0.721178 0.180029 0.679895
v 0.738645 0.172222 0.292403
v 0.678018 0.191680 -0.075490
v 0.707116 0.180971 -0.473403
v 0.746643 0.165081 -0.863902
v 0.485890 0.164995 -1.228290
v 0.237165 0.163407 -1.235318
v -0.016970 0.162871 -1.221510
v -0.266048 0.161515 -1.231633
v -0.526777 0.164422 -1.251212
v -0.540416 0.164422 0.682907
v -0.537688 0.164422 0.296083
v -0.534960 0.164422 -0.090740
v -0.532232 0.164422 -0.477564
v -0.529504 0.164422 -0.864388
v -0.279377 0.164422 0.682907
v -0.278013 0.164422 0.296083
v -0.276649 0.164422 -0.090740
v -0.275285 0.164422 -0.477564
v -0.273921 0.164422 -0.864388
v -0.018338 0.164422 0.682907
v -0.018338 0.164422 0.296083
v -0.018338 0.164422 -0.090740
v -0.018338 0.164422 -0.477564
v -0.018338 0.164422 -0.864388
v 0.242701 0.164422 0.682907
v 0.241337 0.164422 0.296083
v 0.239973 0.164422 -0.090740
v 0.238609 0.164422 -0.477564
v 0.237245 0.164422 -0.864388
v 0.503740 0.164422 0.682907
v 0.501012 0.164422 0.296083
v 0.498284 0.164422 -0.090740
v 0.495556 0.164422 -0.477564
v 0.492828 0.164422 -0.864388
vn 0.0080 -1.0000 0.0047
vn -0.0358 0.9990 0.0254
vn 0.9674 0.2530 -0.0076
vn -0.9991 -0.0412 0.0048
vn 0.0641 -0.0273 -0.9976
vn 0.0362 0.0268 0.9990
vn -0.0575 0.9976 -0.0384
vn 0.0058 1.0000 -0.0038
vn -0.0026 1.0000 -0.0062
vn -0.0011 1.0000 -0.0035
vn -0.0031 1.0000 -0.0006
vn -0.0915 0.9939 0.0611
vn -0.0000 1.0000 -0.0000
vn -0.0293 0.9994 -0.0199
vn -0.0304 0.9993 0.0200
vn -0.0057 1.0000 -0.0039
vn 0.0054 1.0000 -0.0042
vn 0.0052 1.0000 0.0039
vn -0.0055 1.0000 0.0038
vn -0.0693 0.9976 0.0018
vn -0.0515 0.9986 -0.0110
vn -0.0846 0.9959 0.0328
vn -0.1104 0.9937 -0.0173
vn -0.0367 0.9991 -0.0222
vt 0.000000 0.000000
vt 1.000000 0.000000
vt 0.000000 1.000000
vt 1.000000 1.000000
vt 0.000000 0.000000
vt 1.000000 0.000000
vt 0.000000 1.000000
vt 1.000000 1.000000
vt 0.000000 0.833333
vt 0.000000 0.666667
vt 0.000000 0.500000
vt 0.000000 0.333333
vt 0.000000 0.166667
vt 0.166667 0.000000
vt 0.333333 0.000000
vt 0.500000 0.000000
vt 0.666667 0.000000
vt 0.833333 0.000000
vt 1.000000 0.166667
vt 1.000000 0.333333
vt 1.000000 0.500000
vt 1.000000 0.666667
vt 1.000000 0.833333
vt 0.833333 1.000000
vt 0.666667 1.000000
vt 0.500000 1.000000
vt 0.333333 1.000000
vt 0.166667 1.000000
vt 0.166667 0.166667
vt 0.166667 0.333333
vt 0.166667 0.500000
vt 0.166667 0.666667
vt 0.166667 0.833333
vt 0.333333 0.166667
vt 0.333333 0.333333
vt 0.333333 0.500000
vt 0.333333 0.666667
vt 0.333333 0.833333
vt 0.500000 0.166667
vt 0.500000 0.333333
vt 0.500000 0.500000
vt 0.500000 0.666667
vt 0.500000 0.833333
vt 0.666667 0.166667
vt 0.666667 0.333333
vt 0.666667 0.500000
vt 0.666667 0.666667
vt 0.666667 0.833333
vt 0.833333 0.166667
vt 0.833333 0.333333
vt 0.833333 0.500000
vt 0.833333 0.666667
vt 0.833333 0.833333
s 0
usemtl Material.001
f 1/1/1 3/3/1 4/4/1 2/2/1
f 53/53/2 23/23/2 8/8/2 24/24/2
f 2/2/3 4/4/3 8/8/3 23/23/3 22/22/3 21/21/3 20/20/3 19/19/3 6/6/3
f 3/3/4 1/1/4 5/5/4 13/13/4 12/12/4 11/11/4 10/10/4 9/9/4 7/7/4
f 4/4/5 3/3/5 7/7/5 28/28/5 27/27/5 26/26/5 25/25/5 24/24/5 8/8/5
f 1/1/6 2/2/6 6/6/6 18/18/6 17/17/6 16/16/6 15/15/6 14/14/6 5/5/6
f 9/9/7 33/33/7 28/28/7 7/7/7
f 33/33/8 38/38/8 27/27/8 28/28/8
f 38/38/9 43/43/9 26/26/9 27/27/9
f 43/43/10 48/48/10 25/25/10 26/26/10
f 48/48/11 53/53/11 24/24/11 25/25/11
f 5/5/12 14/14/12 29/29/12 13/13/12
f 13/13/13 29/29/13 30/30/13 12/12/13
f 12/12/14 30/30/14 31/31/14 11/11/14
f 11/11/15 31/31/15 32/32/15 10/10/15
f 10/10/13 32/32/13 33/33/13 9/9/13
f 14/14/16 15/15/16 34/34/16 29/29/16
f 29/29/13 34/34/13 35/35/13 30/30/13
f 30/30/13 35/35/13 36/36/13 31/31/13
f 31/31/13 36/36/13 37/37/13 32/32/13
f 32/32/13 37/37/13 38/38/13 33/33/13
f 15/15/17 16/16/17 39/39/17 34/34/17
f 34/34/13 39/39/13 40/40/13 35/35/13
f 35/35/13 40/40/13 41/41/13 36/36/13
f 36/36/13 41/41/13 42/42/13 37/37/13
f 37/37/13 42/42/13 43/43/13 38/38/13
f 16/16/18 17/17/18 44/44/18 39/39/18
f 39/39/13 44/44/13 45/45/13 40/40/13
f 40/40/13 45/45/13 46/46/13 41/41/13
f 41/41/13 46/46/13 47/47/13 42/42/13
f 42/42/13 47/47/13 48/48/13 43/43/13
f 17/17/19 18/18/19 49/49/19 44/44/19
f 44/44/13 49/49/13 50/50/13 45/45/13
f 45/45/13 50/50/13 51/51/13 46/46/13
f 46/46/13 51/51/13 52/52/13 47/47/13
f 47/47/13 52/52/13 53/53/13 48/48/13
f 18/18/20 6/6/20 19/19/20 49/49/20
f 49/49/21 19/19/21 20/20/21 50/50/21
f 50/50/22 20/20/22 21/21/22 51/51/22
f 51/51/23 21/21/23 22/22/23 52/52/23
f 52/52/24 22/22/24 23/23/24 53/53/24
